{
  "accessors": [
    {
      "bufferView": 2,
      "componentType": 5126,
      "count": 65532,
      "max": [
        0.46309205889701843,
        0.9485621452331543,
        0.3292607069015503
      ],
      "min": [
        -0.3880365788936615,
        -0.9490931034088135,
        -0.18751251697540283
      ],
      "type": "VEC3"
    },
    {
      "bufferView": 2,
      "byteOffset": 786384,
      "componentType": 5126,
      "count": 65532,
      "max": [
        0.9999690055847168,
        0.9999380111694336,
        0.9999690055847168
      ],
      "min": [
        -1.0,
        -0.9999690055847168,
        -0.9998760223388672
      ],
      "type": "VEC3"
    },
    {
      "bufferView": 3,
      "componentType": 5126,
      "count": 65532,
      "max": [
        0.9999992847442627,
        0.999984085559845,
        0.9999589920043945,
        1.0
      ],
      "min": [
        -0.999996542930603,
        -0.999967634677887,
        -0.9999998211860657,
        -1.0
      ],
      "type": "VEC4"
    },
    {
      "bufferView": 1,
      "componentType": 5126,
      "count": 65532,
      "max": [
        0.9970683455467224,
        0.9999687671661377
      ],
      "min": [
        2.073210089292843e-05,
        1.9371509552001953e-05
      ],
      "type": "VEC2"
    },
    {
      "bufferView": 1,
      "byteOffset": 524256,
      "componentType": 5126,
      "count": 65532,
      "max": [
        0.9970683455467224,
        0.9999687671661377
      ],
      "min": [
        2.073210089292843e-05,
        1.9371509552001953e-05
      ],
      "type": "VEC2"
    },
    {
      "bufferView": 1,
      "byteOffset": 1048512,
      "componentType": 5126,
      "count": 65532,
      "max": [
        0.9970683455467224,
        0.9999687671661377
      ],
      "min": [
        2.073210089292843e-05,
        1.9371509552001953e-05
      ],
      "type": "VEC2"
    },
    {
      "bufferView": 1,
      "byteOffset": 1572768,
      "componentType": 5126,
      "count": 65532,
      "max": [
        0.9970683455467224,
        0.9999687671661377
      ],
      "min": [
        2.073210089292843e-05,
        1.9371509552001953e-05
      ],
      "type": "VEC2"
    },
    {
      "bufferView": 1,
      "byteOffset": 2097024,
      "componentType": 5126,
      "count": 65532,
      "max": [
        0.9970683455467224,
        0.9999687671661377
      ],
      "min": [
        2.073210089292843e-05,
        1.9371509552001953e-05
      ],
      "type": "VEC2"
    },
    {
      "bufferView": 0,
      "componentType": 5125,
      "count": 330234,
      "type": "SCALAR"
    },
    {
      "bufferView": 2,
      "byteOffset": 1572768,
      "componentType": 5126,
      "count": 65533,
      "max": [
        0.4176614582538605,
        0.9485621452331543,
        0.09758775681257248
      ],
      "min": [
        -0.4644109904766083,
        -0.950136125087738,
        -0.32855603098869324
      ],
      "type": "VEC3"
    },
    {
      "bufferView": 2,
      "byteOffset": 2359164,
      "componentType": 5126,
      "count": 65533,
      "max": [
        0.9999690055847168,
        0.9999690055847168,
        0.9997521042823792
      ],
      "min": [
        -0.9999690055847168,
        -1.0,
        -1.0
      ],
      "type": "VEC3"
    },
    {
      "bufferView": 3,
      "byteOffset": 1048512,
      "componentType": 5126,
      "count": 65533,
      "max": [
        0.9999595284461975,
        1.0,
        0.9999365210533142,
        1.0
      ],
      "min": [
        -0.9999682903289795,
        -0.9999998211860657,
        -0.9999668598175049,
        -1.0
      ],
      "type": "VEC4"
    },
    {
      "bufferView": 1,
      "byteOffset": 2621280,
      "componentType": 5126,
      "count": 65533,
      "max": [
        0.9985313415527344,
        0.9999687671661377
      ],
      "min": [
        2.073210089292843e-05,
        0.0029496261849999428
      ],
      "type": "VEC2"
    },
    {
      "bufferView": 1,
      "byteOffset": 3145544,
      "componentType": 5126,
      "count": 65533,
      "max": [
        0.9985313415527344,
        0.9999687671661377
      ],
      "min": [
        2.073210089292843e-05,
        0.0029496261849999428
      ],
      "type": "VEC2"
    },
    {
      "bufferView": 1,
      "byteOffset": 3669808,
      "componentType": 5126,
      "count": 65533,
      "max": [
        0.9985313415527344,
        0.9999687671661377
      ],
      "min": [
        2.073210089292843e-05,
        0.0029496261849999428
      ],
      "type": "VEC2"
    },
    {
      "bufferView": 1,
      "byteOffset": 4194072,
      "componentType": 5126,
      "count": 65533,
      "max": [
        0.9985313415527344,
        0.9999687671661377
      ],
      "min": [
        2.073210089292843e-05,
        0.0029496261849999428
      ],
      "type": "VEC2"
    },
    {
      "bufferView": 1,
      "byteOffset": 4718336,
      "componentType": 5126,
      "count": 65533,
      "max": [
        0.9985313415527344,
        0.9999687671661377
      ],
      "min": [
        2.073210089292843e-05,
        0.0029496261849999428
      ],
      "type": "VEC2"
    },
    {
      "bufferView": 0,
      "byteOffset": 1320936,
      "componentType": 5125,
      "count": 336390,
      "type": "SCALAR"
    },
    {
      "bufferView": 2,
      "byteOffset": 3145560,
      "componentType": 5126,
      "count": 5563,
      "max": [
        0.39853885769844055,
        0.9324528574943542,
        0.07545191794633865
      ],
      "min": [
        -0.40924525260925293,
        -0.90806645154953,
        -0.08830689638853073
      ],
      "type": "VEC3"
    },
    {
      "bufferView": 2,
      "byteOffset": 3212316,
      "componentType": 5126,
      "count": 5563,
      "max": [
        0.9999690055847168,
        0.9999690055847168,
        0.9999380111694336
      ],
      "min": [
        -0.9998760223388672,
        -0.9999690055847168,
        -0.9953712224960327
      ],
      "type": "VEC3"
    },
    {
      "bufferView": 3,
      "byteOffset": 2097040,
      "componentType": 5126,
      "count": 5563,
      "max": [
        0.9999563097953796,
        0.9999682903289795,
        0.9995867609977722,
        -1.0
      ],
      "min": [
        -0.9998258948326111,
        -0.9999991655349731,
        -0.997451663017273,
        -1.0
      ],
      "type": "VEC4"
    },
    {
      "bufferView": 1,
      "byteOffset": 5242600,
      "componentType": 5126,
      "count": 5563,
      "max": [
        0.9868271946907043,
        0.9999687671661377
      ],
      "min": [
        0.00026456863270141184,
        0.021752092987298965
      ],
      "type": "VEC2"
    },
    {
      "bufferView": 1,
      "byteOffset": 5287104,
      "componentType": 5126,
      "count": 5563,
      "max": [
        0.9868271946907043,
        0.9999687671661377
      ],
      "min": [
        0.00026456863270141184,
        0.021752092987298965
      ],
      "type": "VEC2"
    },
    {
      "bufferView": 1,
      "byteOffset": 5331608,
      "componentType": 5126,
      "count": 5563,
      "max": [
        0.9868271946907043,
        0.9999687671661377
      ],
      "min": [
        0.00026456863270141184,
        0.021752092987298965
      ],
      "type": "VEC2"
    },
    {
      "bufferView": 1,
      "byteOffset": 5376112,
      "componentType": 5126,
      "count": 5563,
      "max": [
        0.9868271946907043,
        0.9999687671661377
      ],
      "min": [
        0.00026456863270141184,
        0.021752092987298965
      ],
      "type": "VEC2"
    },
    {
      "bufferView": 1,
      "byteOffset": 5420616,
      "componentType": 5126,
      "count": 5563,
      "max": [
        0.9868271946907043,
        0.9999687671661377
      ],
      "min": [
        0.00026456863270141184,
        0.021752092987298965
      ],
      "type": "VEC2"
    },
    {
      "bufferView": 0,
      "byteOffset": 2666496,
      "componentType": 5125,
      "count": 22668,
      "type": "SCALAR"
    }
  ],
  "asset": {
    "extras": {
      "author": "Tulio Portela (https://sketchfab.com/TulioPortela)",
      "license": "CC-BY-4.0 (http://creativecommons.org/licenses/by/4.0/)",
      "source": "https://sketchfab.com/3d-models/brazilian-jiu-jitsu-black-belt-fighter-free-82ed688a48c44c3d8b35aab2ed77d11a",
      "title": "Brazilian Jiu-Jitsu Black Belt Fighter Free"
    },
    "generator": "Sketchfab-17.15.0",
    "version": "2.0"
  },
  "bufferViews": [
    {
      "buffer": 0,
      "byteLength": 2757168,
      "name": "floatBufferViews",
      "target": 34963
    },
    {
      "buffer": 0,
      "byteLength": 5465120,
      "byteOffset": 2757168,
      "byteStride": 8,
      "name": "floatBufferViews",
      "target": 34962
    },
    {
      "buffer": 0,
      "byteLength": 3279072,
      "byteOffset": 8222288,
      "byteStride": 12,
      "name": "floatBufferViews",
      "target": 34962
    },
    {
      "buffer": 0,
      "byteLength": 2186048,
      "byteOffset": 11501360,
      "byteStride": 16,
      "name": "floatBufferViews",
      "target": 34962
    }
  ],
  "buffers": [
    {
      "byteLength": 13687408,
      "uri": "scene.bin"
    }
  ],
  "images": [
    {
      "uri": "textures/material_0_baseColor.png"
    },
    {
      "uri": "textures/material_0_metallicRoughness.png"
    },
    {
      "uri": "textures/material_0_emissive.png"
    },
    {
      "uri": "textures/material_0_normal.png"
    }
  ],
  "materials": [
    {
      "doubleSided": true,
      "emissiveFactor": [
        1.0,
        1.0,
        1.0
      ],
      "emissiveTexture": {
        "index": 2,
        "texCoord": 2
      },
      "name": "material_0",
      "normalTexture": {
        "index": 3,
        "texCoord": 3
      },
      "pbrMetallicRoughness": {
        "baseColorTexture": {
          "index": 0
        },
        "metallicRoughnessTexture": {
          "index": 1,
          "texCoord": 1
        }
      }
    }
  ],
  "meshes": [
    {
      "name": "Object_0",
      "primitives": [
        {
          "attributes": {
            "NORMAL": 1,
            "POSITION": 0,
            "TANGENT": 2,
            "TEXCOORD_0": 3,
            "TEXCOORD_1": 4,
            "TEXCOORD_2": 5,
            "TEXCOORD_3": 6,
            "TEXCOORD_4": 7
          },
          "indices": 8,
          "material": 0,
          "mode": 4
        }
      ]
    },
    {
      "name": "Object_1",
      "primitives": [
        {
          "attributes": {
            "NORMAL": 10,
            "POSITION": 9,
            "TANGENT": 11,
            "TEXCOORD_0": 12,
            "TEXCOORD_1": 13,
            "TEXCOORD_2": 14,
            "TEXCOORD_3": 15,
            "TEXCOORD_4": 16
          },
          "indices": 17,
          "material": 0,
          "mode": 4
        }
      ]
    },
    {
      "name": "Object_2",
      "primitives": [
        {
          "attributes": {
            "NORMAL": 19,
            "POSITION": 18,
            "TANGENT": 20,
            "TEXCOORD_0": 21,
            "TEXCOORD_1": 22,
            "TEXCOORD_2": 23,
            "TEXCOORD_3": 24,
            "TEXCOORD_4": 25
          },
          "indices": 26,
          "material": 0,
          "mode": 4
        }
      ]
    }
  ],
  "nodes": [
    {
      "children": [
        1
      ],
      "matrix": [
        1.0,
        0.0,
        0.0,
        0.0,
        0.0,
        2.220446049250313e-16,
        -1.0,
        0.0,
        0.0,
        1.0,
        2.220446049250313e-16,
        0.0,
        0.0,
        0.0,
        0.0,
        1.0
      ],
      "name": "Sketchfab_model"
    },
    {
      "children": [
        2
      ],
      "name": "root"
    },
    {
      "children": [
        3
      ],
      "matrix": [
        1.0,
        0.0,
        0.0,
        0.0,
        0.0,
        2.220446049250313e-16,
        1.0,
        0.0,
        0.0,
        -1.0,
        2.220446049250313e-16,
        0.0,
        0.0,
        0.0,
        0.0,
        1.0
      ],
      "name": "GLTF_SceneRootNode"
    },
    {
      "children": [
        4
      ],
      "name": "_1"
    },
    {
      "children": [
        5,
        6,
        7
      ],
      "name": "mesh_0_0"
    },
    {
      "mesh": 0,
      "name": "Object_5"
    },
    {
      "mesh": 1,
      "name": "Object_6"
    },
    {
      "mesh": 2,
      "name": "Object_7"
    }
  ],
  "samplers": [
    {
      "magFilter": 9729,
      "minFilter": 9987,
      "wrapS": 10497,
      "wrapT": 10497
    }
  ],
  "scene": 0,
  "scenes": [
    {
      "name": "Sketchfab_Scene",
      "nodes": [
        0
      ]
    }
  ],
  "textures": [
    {
      "sampler": 0,
      "source": 0
    },
    {
      "sampler": 0,
      "source": 1
    },
    {
      "sampler": 0,
      "source": 2
    },
    {
      "sampler": 0,
      "source": 3
    }
  ]
}
